<?xml version="1.0" standalone="no"?>
<!DOCTYPE svg PUBLIC "-//W3C//DTD SVG 1.1//EN" "http://www.w3.org/Graphics/SVG/1.1/DTD/svg11.dtd">
<svg xmlns="http://www.w3.org/2000/svg" id="Layer_2" data-name="Layer 2" viewBox="0 0 852.33 161.86" width="852.3300170898438" height="161.86000061035156">
  <defs>
    <style>
      .cls-1 {
        letter-spacing: 0em;
      }

      .cls-2, .cls-3 {
        fill: #2e4052;
      }

      .cls-3 {
        font-family: Roundex-Regular, Roundex;
        font-size: 32.28px;
      }

      .cls-4 {
        letter-spacing: -.02em;
      }

      .cls-5 {
        letter-spacing: -.03em;
      }

      .cls-6 {
        letter-spacing: 0em;
      }

      .cls-7 {
        letter-spacing: 0em;
      }
    </style>
  </defs>
  <g id="Layer_2-2" data-name="Layer 2">
    <g>
      <g>
        <path class="cls-2" d="M289.22,126.21h-13.06c-23.02-.42-39.75-17.37-40.46-40.24,0-21.11,0-40.81.07-59.09,0-4.59,3.04-7.06,7.48-7.06,5.08,0,7.2,3.67,7.2,7.06v57.12c.42,15.67,12,27.25,27.68,27.68h22.31c4.02.07,7.2,3.25,7.2,7.2s-3.04,7.2-7.2,7.27c-3.32,0-7.06,0-11.23.07Z"/>
        <path class="cls-2" d="M385.24,46.85c1.48,1.48,2.19,3.32,2.19,5.37v66.72c.07,2.05-.71,3.88-2.19,5.37-1.48,1.48-3.32,2.26-5.37,2.26s-3.88-.78-5.37-2.26c-1.48-1.48-2.26-3.25-2.26-5.37v-3.18c-5.65,6.71-14.12,10.8-25.77,10.8-14.19,0-23.16-5.29-28.31-13.2-5.15-7.91-6.99-17.86-6.99-27.75v-33.39c.07-2.12.78-3.88,2.26-5.37,1.48-1.48,3.25-2.19,5.37-2.19,2.12-.07,3.88.71,5.37,2.19,1.48,1.48,2.19,3.32,2.19,5.37v30.57c0,9.53.64,28.59,22.95,28.59,17.86,0,21.96-12.14,22.73-21.82.14-1.98.21-3.81.21-5.51v-31.84c.07-2.12.78-3.88,2.26-5.37,1.48-1.48,3.25-2.19,5.37-2.19,2.12-.07,3.88.71,5.37,2.19Z"/>
        <path class="cls-2" d="M444.54,85.12l23.93,30.01c1.06,1.34,1.62,2.82,1.62,4.31.07.21,0,.85-.14,1.84-.14.92-.85,2.05-2.12,3.32s-2.89,1.91-4.8,1.91h-1.69c-2.12,0-3.95-.85-5.44-2.61l-22.95-28.74-21.96,28.59c-1.48,1.84-3.32,2.75-5.51,2.75h-.14c-3.88,0-6.5-2.82-6.99-6.28-.07-.21-.07-.5-.07-.71,0-1.48.49-2.9,1.55-4.24l24.08-31.49-22.17-27.82c-1.06-1.34-1.55-2.75-1.55-4.24.07-.21.07-.85.21-1.84s.78-2.12,2.05-3.39c1.2-1.27,2.82-1.91,4.8-1.91h1.62c2.19,0,4.02.92,5.51,2.68l21.18,26.55,20.62-26.48c1.48-1.84,3.32-2.75,5.51-2.75,3.95,0,6.64,2.89,6.99,6.35.07.21.07.49.07.71,0,1.48-.49,2.89-1.48,4.24l-22.73,29.23Z"/>
        <path class="cls-2" d="M545.36,111.67c0,2.54-1.06,4.66-3.25,6.28-7.27,5.08-16.73,8.54-26.62,8.54-25.42,0-41.58-15.53-41.58-40.95,0-11.58,3.32-21.18,9.95-28.74,8.26-9.11,18.78-12.21,30.85-12.21,11.23,0,20.19,3.53,27.75,11.93,1.69,1.91,2.54,3.95,2.54,6.28.07.14,0,.92-.07,2.33s-1.13,3.04-3.11,4.87l-32.19,28.17c-1.34,1.06-2.75,1.62-4.24,1.62-.21,0-.78,0-1.77-.07-2.75-.21-5.08-4.09-5.08-6.64.07-.14.07-.64.14-1.62.07-.92.78-2.05,2.12-3.32l26.69-23.37c-3.67-2.82-8.12-5.01-13.41-5.01-17.3,0-24.92,9.32-24.92,25.77,0,4.73,1.06,11.16,4.73,16.45,3.67,5.37,10.31,9.32,21.6,9.32,6.5,0,12.92-2.54,17.72-5.86,1.48-.92,3.04-1.41,4.52-1.41s2.82.42,4.31,1.34c2.19,1.69,3.32,3.81,3.32,6.28Z"/>
        <path class="cls-2" d="M674.77,52.64c0,.85-.14,1.7-.42,2.61l-20.69,62.41c-1.91,5.37-6.71,8.9-12.28,8.9s-10.59-3.74-12.36-9.18l-15.39-50.9-15.39,50.9c-1.69,5.44-6.64,9.18-12.36,9.18s-10.38-3.53-12.28-8.9l-20.69-62.41c-.28-.92-.42-1.76-.42-2.61,0-1.69.64-3.46,1.98-5.29,1.34-1.84,3.39-2.75,6.14-2.75,3.6,0,6.64,2.33,7.77,5.79l17.65,58.18,16.03-55.28c1.62-5.15,6.21-8.68,11.58-8.68s9.96,3.53,11.58,8.68l16.03,55.28,17.72-58.18c1.06-3.46,4.09-5.79,7.7-5.79,4.38,0,8.12,3.6,8.12,8.05Z"/>
        <path class="cls-2" d="M761.75,119.71c-.35,4.52-2.89,6.78-7.77,6.78-4.45-.07-6.92-2.33-7.41-6.78v-34.17c0-16.52-8.9-25.77-25.77-25.77-11.16-.07-17.72,3.95-21.25,9.25-3.53,5.37-4.52,11.72-4.52,16.52,0,5.51.71,11.16,3.25,16.1,3.81,7.34,11.01,9.67,18.85,9.67,4.52,0,8.68-1.41,12.57-4.17,1.41-1.06,2.89-1.55,4.52-1.55.35-.07,1.06.07,2.26.21,1.2.21,2.4,1.13,3.74,2.82.92,1.34,1.34,2.82,1.34,4.31.07.21,0,.85-.07,1.84s-.78,2.12-2.12,3.46c-4.45,4.52-11.51,8.26-22.24,8.26-27.04,0-37.28-19.49-37.28-40.95,0-24.99,15.81-40.95,40.95-40.95s40.81,15.81,40.95,40.88v34.24Z"/>
        <path class="cls-2" d="M845.05,44.59c4.17,0,7.27,3.53,7.27,7.62v69.47c.07,7.98-1.55,14.97-4.66,20.97-7.48,14.33-21.6,19.2-37,19.2-13.06,0-25.98-4.87-34.6-15.04-1.2-1.48-1.77-3.04-1.77-4.73,0-.49.14-1.48.42-2.9.28-1.41,1.55-2.68,3.74-3.88l.14-.07c1.06-.49,2.12-.71,3.18-.71,1.13,0,3.53.14,5.79,2.75,4.45,5.37,12.57,9.32,23.79,9.32,16.66.07,25.77-8.33,25.77-24.92v-5.93c-5.65,6.71-14.12,10.8-25.77,10.8-25.56,0-35.3-17.65-35.3-40.95v-33.39c.14-4.52,3.39-7.62,7.91-7.62,4.24,0,7.34,3.53,7.34,7.62v31.77c.35,15.46,4.45,27.32,22.88,27.32,22.52,0,22.95-18.92,22.95-28.59v-30.5c.14-4.52,3.39-7.62,7.91-7.62Z"/>
      </g>
      <g>
        <path class="cls-2" d="M77.17,153.43h-18.84c-33.19-.61-57.32-25.05-58.34-58.03C0,64.96,0,36.55.1,10.18.1,3.56,4.48,0,10.89,0c7.33,0,10.38,5.29,10.38,10.18v82.37c.61,22.6,17.31,39.3,39.91,39.91h32.17c5.8.1,10.38,4.68,10.38,10.38s-4.38,10.38-10.38,10.49c-4.79,0-10.18,0-16.19.1Z"/>
        <path class="cls-2" d="M85.46,153.33c-6.01-.1-10.38-4.68-10.38-10.49s4.58-10.28,10.38-10.38h32.17c22.6-.61,39.3-17.31,39.91-39.91V10.18C157.54,5.29,160.6,0,167.93,0c6.41,0,10.79,3.56,10.79,10.18.1,26.37.1,54.78.1,85.22-1.02,32.99-25.15,57.42-58.34,58.03h-18.84c-6.01-.1-11.4-.1-16.19-.1Z"/>
      </g>
      <path class="cls-2" d="M89.85,17.02c-.4-.67-1.12-1.08-1.9-1.08s-1.5.41-1.9,1.08l-44.58,89.15c-.41.82-.25,1.82.41,2.47.66.64,1.66.79,2.47.36l38.76-20.3c3.02-1.58,6.63-1.58,9.66,0l38.76,20.3c.82.43,1.81.28,2.47-.36.66-.64.82-1.64.41-2.47L89.85,17.02Z"/>
      <text class="cls-3" transform="translate(776.08 41.02)"><tspan class="cls-4" x="0" y="0">r</tspan><tspan class="cls-6" x="13.4" y="0">i</tspan><tspan class="cls-7" x="19.75" y="0">d</tspan><tspan class="cls-5" x="41.2" y="0">e</tspan><tspan class="cls-1" x="58.94" y="0">s</tspan></text>
    </g>
  </g>
</svg>